<svg width="512" height="512" xmlns="http://www.w3.org/2000/svg">

 <g>
  <title>background</title>
  <rect fill="none" id="canvas_background" height="402" width="582" y="-1" x="-1"/>
 </g>
 <g>
  <title>Layer 1</title>
  <path fill="#ffffff" id="svg_2" fill-rule="evenodd" clip-rule="evenodd" d="m350.572,351.082l0.105,0l0.102,0l16.656,0l0,-17.07l-222.871,0l0,17.07l16.656,0l0.105,0l0.102,0l189.145,0zm9.434,-76.916c-2.246,-2.246 -5.355,-3.629 -8.777,-3.629c-3.316,0 -6.355,1.313 -8.566,3.422l-0.176,0.207c-2.246,2.211 -3.625,5.32 -3.625,8.742c0,3.42 1.379,6.529 3.625,8.775c2.211,2.213 5.324,3.594 8.742,3.594c3.422,0 6.531,-1.381 8.777,-3.594c2.246,-2.246 3.629,-5.355 3.629,-8.775c0,-3.422 -1.418,-6.531 -3.629,-8.742zm-8.777,-12.129c5.773,0 10.988,2.35 14.789,6.115c3.766,3.768 6.082,8.984 6.082,14.756c0,5.77 -2.316,10.988 -6.117,14.754c-3.766,3.801 -8.98,6.115 -14.754,6.115c-5.734,0 -10.953,-2.314 -14.754,-6.115c-3.766,-3.766 -6.113,-8.984 -6.113,-14.754c0,-5.771 2.348,-10.988 6.113,-14.756l0.313,-0.275c3.765,-3.629 8.843,-5.84 14.441,-5.84zm-54.731,12.129c-2.246,-2.246 -5.32,-3.629 -8.742,-3.629c-3.352,0 -6.359,1.313 -8.57,3.422l-0.207,0.207c-2.211,2.211 -3.629,5.32 -3.629,8.742c0,3.42 1.418,6.529 3.629,8.775c2.246,2.213 5.355,3.594 8.777,3.594s6.496,-1.381 8.742,-3.594c2.246,-2.246 3.629,-5.355 3.629,-8.775c0,-3.422 -1.383,-6.531 -3.629,-8.742zm-8.742,-12.129c5.77,0 10.988,2.35 14.754,6.115c3.766,3.768 6.117,8.984 6.117,14.756c0,5.77 -2.352,10.988 -6.117,14.754c-3.766,3.801 -8.984,6.115 -14.754,6.115s-10.988,-2.314 -14.754,-6.115c-3.801,-3.766 -6.152,-8.984 -6.152,-14.754c0,-5.771 2.352,-10.988 6.117,-14.756l0.313,-0.275c3.765,-3.629 8.878,-5.84 14.476,-5.84zm-54.735,12.094c-2.246,-2.211 -5.355,-3.594 -8.773,-3.594c-3.422,0 -6.531,1.383 -8.742,3.594c-2.246,2.246 -3.629,5.355 -3.629,8.777c0,3.352 1.313,6.357 3.422,8.568l0.207,0.207c2.246,2.213 5.32,3.594 8.742,3.594c3.418,0 6.527,-1.381 8.773,-3.594c2.211,-2.246 3.629,-5.355 3.629,-8.775c0,-3.422 -1.418,-6.531 -3.629,-8.777zm-8.773,-12.094c5.77,0 10.984,2.35 14.754,6.115c3.801,3.768 6.113,8.984 6.113,14.756c0,5.77 -2.313,10.988 -6.082,14.754c-3.801,3.801 -9.016,6.115 -14.785,6.115c-5.773,0 -10.988,-2.314 -14.758,-6.115l-0.273,-0.311c-3.629,-3.732 -5.84,-8.846 -5.84,-14.443c0,-5.736 2.348,-10.955 6.113,-14.756c3.836,-3.8 9.02,-6.115 14.758,-6.115zm-54.734,12.094c-2.211,-2.211 -5.32,-3.594 -8.742,-3.594c-3.453,0 -6.531,1.383 -8.777,3.594c-2.246,2.246 -3.625,5.355 -3.625,8.777c0,3.352 1.313,6.357 3.418,8.568l0.207,0.207c2.246,2.213 5.355,3.594 8.777,3.594s6.496,-1.381 8.742,-3.594c2.246,-2.246 3.629,-5.355 3.629,-8.775c0,-3.422 -1.383,-6.531 -3.629,-8.777zm-8.743,-12.094c5.734,0 10.953,2.35 14.754,6.115c3.766,3.768 6.117,8.984 6.117,14.756c0,5.77 -2.352,10.988 -6.117,14.754c-3.766,3.801 -8.984,6.115 -14.754,6.115s-10.988,-2.314 -14.789,-6.115l-0.277,-0.311c-3.594,-3.732 -5.84,-8.846 -5.84,-14.443c0,-5.736 2.352,-10.955 6.117,-14.756c3.836,-3.8 9.055,-6.115 14.789,-6.115zm223.387,-21.734l-0.172,0.035l-0.277,-0.035l-1.242,0l-252.965,0c-11.715,0 -22.355,4.803 -30.063,12.508c-7.738,7.74 -12.543,18.383 -12.543,30.098c0,11.713 4.805,22.391 12.543,30.096c7.707,7.74 18.348,12.508 30.063,12.508l10.711,0l0.102,0l231.371,0l0.102,0l10.68,0c11.711,0 22.391,-4.768 30.094,-12.508c7.742,-7.705 12.543,-18.383 12.543,-30.096c0,-11.715 -4.801,-22.357 -12.543,-30.098c-7.326,-7.36 -17.345,-12.059 -28.404,-12.508zm-115.547,-93.709c-2.313,-0.139 -4.109,-2.107 -3.973,-4.457c0.105,-2.314 2.109,-4.111 4.457,-4.008c0.172,0.033 64.168,2.938 80.578,76.777c0.52,2.281 -0.934,4.527 -3.211,5.045c-2.281,0.484 -4.527,-0.934 -5.047,-3.213c-14.995,-67.484 -72.628,-70.144 -72.804,-70.144zm-8.359,241.355l0,35.695l74.566,-20.008l-14.789,-25.639c-15.621,5.808 -36.558,9.538 -59.777,9.952zm-65.688,-9.017l-14.648,25.361l71.836,19.248l0,-35.592c-21.977,-0.414 -41.879,-3.73 -57.188,-9.017zm144.641,32.306l-78.953,21.182l0,49.205c0,2.35 -1.902,4.25 -4.25,4.25c-2.352,0 -4.25,-1.9 -4.25,-4.25l0,-49.309l-76.227,-20.42l-41.531,71.975c-1.176,2.039 -3.766,2.729 -5.805,1.555c-2.004,-1.176 -2.695,-3.766 -1.555,-5.805l59.949,-103.799c-10.609,-4.666 -17.832,-10.297 -20.18,-16.24l179.191,0c-2.176,5.494 -8.465,10.676 -17.723,15.1l60.605,104.939c1.176,2.039 0.484,4.629 -1.555,5.805c-2.004,1.174 -4.598,0.484 -5.77,-1.555l-41.946,-72.633zm4.285,-262.709c-20.941,-20.939 -49.344,-34.416 -80.926,-36.074l0,-45.473c8.398,-2.764 14.445,-10.643 14.445,-19.971c0,-11.611 -9.398,-21.01 -21.008,-21.01s-21.008,9.398 -21.008,21.01c0,9.328 6.047,17.207 14.441,19.971l0,45.473c-31.582,1.658 -60.02,15.135 -80.922,36.074c-21.492,21.457 -35.074,50.76 -36.18,83.273l247.332,0c-1.103,-32.48 -14.717,-61.816 -36.174,-83.273z"/>
 </g>
</svg>