<svg width="1920" height="2048" xmlns="http://www.w3.org/2000/svg" preserveAspectRatio="xMidYMid meet">

 <g>
  <title>background</title>
  <rect fill="none" id="canvas_background" height="402" width="582" y="-1" x="-1"/>
 </g>
 <g>
  <title>Layer 1</title>
  <path fill="#ffffff" id="svg_1" d="m593,1024c-108,3.333 -196.333,46 -265,128l-134,0c-54.667,0 -100.667,-13.5 -138,-40.5s-56,-66.5 -56,-118.5c0,-235.333 41.333,-353 124,-353c4,0 18.5,7 43.5,21s57.5,28.167 97.5,42.5s79.667,21.5 119,21.5c44.667,0 89,-7.667 133,-23c-3.333,24.667 -5,46.667 -5,66c0,92.667 27,178 81,256zm1071,637c0,80 -24.333,143.167 -73,189.5s-113.333,69.5 -194,69.5l-874,0c-80.667,0 -145.333,-23.167 -194,-69.5s-73,-109.5 -73,-189.5c0,-35.333 1.167,-69.833 3.5,-103.5s7,-70 14,-109s15.833,-75.167 26.5,-108.5s25,-65.833 43,-97.5s38.667,-58.667 62,-81c23.333,-22.333 51.833,-40.167 85.5,-53.5s70.833,-20 111.5,-20c6.667,0 21,7.167 43,21.5s46.333,30.333 73,48c26.667,17.667 62.333,33.667 107,48s89.667,21.5 135,21.5s90.333,-7.167 135,-21.5s80.333,-30.333 107,-48c26.667,-17.667 51,-33.667 73,-48s36.333,-21.5 43,-21.5c40.667,0 77.833,6.667 111.5,20s62.167,31.167 85.5,53.5c23.333,22.333 44,49.333 62,81s32.333,64.167 43,97.5s19.5,69.5 26.5,108.5s11.667,75.333 14,109s3.5,68.167 3.5,103.5zm-1024,-1277c0,70.667 -25,131 -75,181s-110.333,75 -181,75s-131,-25 -181,-75s-75,-110.333 -75,-181s25,-131 75,-181s110.333,-75 181,-75s131,25 181,75s75,110.333 75,181zm704,384c0,106 -37.5,196.5 -112.5,271.5s-165.5,112.5 -271.5,112.5s-196.5,-37.5 -271.5,-112.5s-112.5,-165.5 -112.5,-271.5s37.5,-196.5 112.5,-271.5s165.5,-112.5 271.5,-112.5s196.5,37.5 271.5,112.5s112.5,165.5 112.5,271.5zm576,225c0,52 -18.667,91.5 -56,118.5s-83.333,40.5 -138,40.5l-134,0c-68.667,-82 -157,-124.667 -265,-128c54,-78 81,-163.333 81,-256c0,-19.333 -1.667,-41.333 -5,-66c44,15.333 88.333,23 133,23c39.333,0 79,-7.167 119,-21.5s72.5,-28.5 97.5,-42.5s39.5,-21 43.5,-21c82.667,0 124,117.667 124,353zm-128,-609c0,70.667 -25,131 -75,181s-110.333,75 -181,75s-131,-25 -181,-75s-75,-110.333 -75,-181s25,-131 75,-181s110.333,-75 181,-75s131,25 181,75s75,110.333 75,181z"/>
 </g>
</svg>