<svg width="1536" height="2048" xmlns="http://www.w3.org/2000/svg" preserveAspectRatio="xMidYMid meet">

 <g>
  <title>background</title>
  <rect fill="none" id="canvas_background" height="402" width="582" y="-1" x="-1"/>
 </g>
 <g>
  <title>Layer 1</title>
  <path fill="#ffffff" id="svg_1" d="m896,672l0,448c0,9.333 -3,17 -9,23s-13.667,9 -23,9l-320,0c-9.333,0 -17,-3 -23,-9s-9,-13.667 -9,-23l0,-64c0,-9.333 3,-17 9,-23s13.667,-9 23,-9l224,0l0,-352c0,-9.333 3,-17 9,-23s13.667,-9 23,-9l64,0c9.333,0 17,3 23,9s9,13.667 9,23zm416,352c0,-98.667 -24.333,-189.667 -73,-273s-114.667,-149.333 -198,-198s-174.333,-73 -273,-73s-189.667,24.333 -273,73s-149.333,114.667 -198,198s-73,174.333 -73,273s24.333,189.667 73,273s114.667,149.333 198,198s174.333,73 273,73s189.667,-24.333 273,-73s149.333,-114.667 198,-198s73,-174.333 73,-273zm224,0c0,139.333 -34.333,267.833 -103,385.5s-161.833,210.833 -279.5,279.5s-246.167,103 -385.5,103s-267.833,-34.333 -385.5,-103s-210.833,-161.833 -279.5,-279.5s-103,-246.167 -103,-385.5s34.333,-267.833 103,-385.5s161.833,-210.833 279.5,-279.5s246.167,-103 385.5,-103s267.833,34.333 385.5,103s210.833,161.833 279.5,279.5s103,246.167 103,385.5z"/>
 </g>
</svg>