<svg width="512" height="512" xmlns="http://www.w3.org/2000/svg">

 <g>
  <title>background</title>
  <rect fill="none" id="canvas_background" height="402" width="582" y="-1" x="-1"/>
 </g>
 <g>
  <title>Layer 1</title>
  <path fill="#ffffff" id="svg_2" fill-rule="evenodd" clip-rule="evenodd" d="m278.579,443.177l74.216,0l-2.795,-18.386l-48.81,0c-2.237,0 -4.046,-1.843 -4.046,-4.045c0,-2.237 1.809,-4.046 4.046,-4.046l47.575,0l-18.944,-124.356l-28.27,0c-7.661,50.288 -15.326,100.545 -22.972,150.833m93.588,8.09l-98.292,0l-0.099,0l-14.569,0l0,13.32l112.96,0l0,-13.32zm-135.802,34.732l158.659,0l0,-6.677c0,-1.809 -0.757,-3.486 -1.972,-4.703l-0.166,-0.165c-1.184,-1.085 -2.795,-1.775 -4.539,-1.775l-12.037,0l-0.099,0l-121.033,0l-0.116,0l-12.053,0c-1.809,0 -3.487,0.756 -4.687,1.94c-1.2,1.217 -1.957,2.895 -1.957,4.703l0,6.677zm83.063,-176.914c-0.954,-0.955 -2.286,-1.579 -3.734,-1.579c-1.463,0 -2.795,0.624 -3.748,1.579c-0.954,0.954 -1.545,2.269 -1.545,3.716c0,1.479 0.591,2.796 1.545,3.75c0.953,0.953 2.285,1.545 3.748,1.545c1.448,0 2.78,-0.592 3.734,-1.545c0.953,-0.954 1.563,-2.271 1.563,-3.75c-0.001,-1.447 -0.61,-2.762 -1.563,-3.716zm-3.735,-9.638c3.686,0 7.041,1.48 9.457,3.914c2.418,2.4 3.915,5.756 3.915,9.439c0,3.717 -1.497,7.071 -3.915,9.473c-2.416,2.4 -5.771,3.914 -9.457,3.914c-3.698,0 -7.054,-1.514 -9.472,-3.914c-2.4,-2.401 -3.913,-5.756 -3.913,-9.473c0,-3.684 1.513,-7.039 3.913,-9.439c2.419,-2.433 5.774,-3.914 9.472,-3.914zm77.259,-185.696c-0.986,-2.005 -0.13,-4.405 1.876,-5.394c2.006,-0.953 4.406,-0.099 5.377,1.875c0.082,0.164 26.723,52.131 -4.373,128.633c-0.839,2.071 -3.208,3.059 -5.247,2.236c-2.072,-0.822 -3.076,-3.19 -2.237,-5.263c29.732,-73.113 4.671,-121.955 4.604,-122.087zm-168.477,59.564l-45.816,-45.815l0,91.631l45.816,-45.816zm51.539,-51.539l-91.631,0l45.815,45.815l45.816,-45.815zm-99.279,-8.09l107.352,0l87.719,-87.684c8.04,8.354 15.326,17.333 21.838,26.903l-283.478,283.478l-0.23,-0.164l-0.23,-0.132l-0.033,-0.032l-0.197,-0.132l-0.229,-0.165l-0.232,-0.164l-0.23,-0.132l-0.229,-0.165l-0.214,-0.164l-0.049,-0.032l-0.181,-0.132l-0.214,-0.164l-0.986,-0.691l-0.165,-0.099l-0.658,-0.46l-0.23,-0.165l-0.23,-0.164l-0.098,-0.065l-0.132,-0.1l-0.214,-0.164l-0.23,-0.165l-0.214,-0.164l-0.461,-0.329l-0.114,-0.098l-0.116,-0.066l-1.25,-0.921l-0.066,-0.065c-6.298,-4.703 -12.382,-9.834 -18.22,-15.359l-0.1,-0.066l-0.196,-0.164l-0.197,-0.197l-0.198,-0.197l-0.181,-0.165l-0.197,-0.197l-0.198,-0.197l87.339,-87.323l0,-107.651c-0.625,0.132 -1.25,0.198 -1.907,0.198c-2.138,0 -4.292,-0.824 -5.921,-2.435c-1.644,-1.646 -2.467,-3.782 -2.467,-5.921c0,-2.138 0.823,-4.275 2.467,-5.92c1.628,-1.644 3.783,-2.467 5.921,-2.467c2.137,0 4.274,0.823 5.92,2.467c1.626,1.645 2.45,3.782 2.45,5.92c-0.001,0.79 -0.117,1.546 -0.314,2.271zm192.242,198.03c39.846,-39.83 59.777,-92.092 59.777,-144.321c0,-37.363 -10.212,-74.725 -30.604,-107.549l-281.045,281.043c18.288,11.381 37.971,19.57 58.28,24.602c35.227,8.716 72.326,7.926 107.223,-2.368l11.478,-75.417l0.033,-0.098l0,-0.1l0.033,-0.098l0.016,-0.1l0.016,-0.065l0.034,-0.099l0.033,-0.098l0.016,-0.066l0.033,-0.099l0.033,-0.099l0.032,-0.065l0.051,-0.1l0.031,-0.065l0.033,-0.099l0.033,-0.065l0.05,-0.1l0.049,-0.065l0.049,-0.065l0.05,-0.099l0.049,-0.065l0.049,-0.066l0.051,-0.065l0.05,-0.065l0.064,-0.066l0.066,-0.066l0.05,-0.064l0.049,-0.066l0.064,-0.066l0.067,-0.065l0.064,-0.065l0.066,-0.066l0.065,-0.065l0.066,-0.032l0.065,-0.066l0.066,-0.065l0,0l0.082,-0.033l0.065,-0.065l0.082,-0.033l0.065,-0.065l0.082,-0.034l0,0l0.083,-0.031l0.066,-0.066l0,0l0.083,-0.032l0.08,-0.034l0.066,-0.031l0.099,-0.033l0,0l0.066,-0.033l0,0l0.099,-0.033l0.064,-0.033l0,0l0.101,-0.033l0,0l0.081,-0.031l0.082,-0.034l0.099,0l0.066,-0.032l0,0l0.099,0l0,-0.033l0.098,0l0.083,0l0.082,-0.033l0,0l0.099,0l0,0l0.082,-0.033l0,0l0.083,0l0,0l0.098,0l0,0l0.101,0l0.098,0l35.192,0c2.072,0 3.799,1.58 4.013,3.586l6.874,45.025c3.52,-2.532 6.973,-5.229 10.359,-7.992l0.198,-0.164c4.805,-3.99 9.574,-8.331 14.245,-13.002z"/>
 </g>
</svg>