<?xml version="1.0" ?><!DOCTYPE svg  PUBLIC '-//W3C//DTD SVG 1.1//EN'  'http://www.w3.org/Graphics/SVG/1.1/DTD/svg11.dtd'><svg height="512px" style="enable-background:new 0 0 512 512;" version="1.1" viewBox="0 0 512 512" width="512px" xml:space="preserve" xmlns="http://www.w3.org/2000/svg" xmlns:xlink="http://www.w3.org/1999/xlink"><g id="_x34_1_x2C__space_ship_x2C__space_x2C__ship_x2C__rocket_x2C__alien_x2C_"><g><path d="M428.593,204.934c-1.319,1.189-2.702,2.379-4.148,3.536    c-3.277,2.669-6.878,5.241-10.753,7.716l14.259,19.642L428.593,204.934z M101.458,208.47c-1.429-1.157-2.812-2.347-4.145-3.567    l0.66,30.925l14.242-19.642C108.354,213.711,104.754,211.139,101.458,208.47z M318.279,83.707h-16.025v33.947h16.025V83.707z     M298.313,75.798h23.922c2.183,0,3.951,1.8,3.951,3.954v41.855c0,2.154-1.769,3.954-3.951,3.954h-23.922    c-2.183,0-3.951-1.8-3.951-3.954V79.752C294.361,77.598,296.13,75.798,298.313,75.798z M270.795,83.707h-16.042v33.947h16.042    V83.707z M250.802,75.798h23.931c2.187,0,3.955,1.8,3.955,3.954v41.855c0,2.154-1.769,3.954-3.955,3.954h-23.931    c-2.172,0-3.938-1.8-3.938-3.954V79.752C246.864,77.598,248.629,75.798,250.802,75.798z M223.284,83.707h-16.01v33.947h16.01    V83.707z M203.318,75.798h23.917c2.187,0,3.955,1.8,3.955,3.954v41.855c0,2.154-1.769,3.954-3.955,3.954h-23.917    c-2.186,0-3.952-1.8-3.952-3.954V79.752C199.366,77.598,201.132,75.798,203.318,75.798z M342.645,59.081    c-1.895-1.897-3.874-3.729-5.913-5.497h-100.27c-2.187,0-3.952-1.769-3.952-3.954c0-2.187,1.765-3.954,3.952-3.954h90.015    c-18.133-12.408-40.071-19.674-63.701-19.674c-31.199,0-59.44,12.665-79.886,33.079c-17.73,17.745-29.592,41.374-32.421,67.67l0,0    l-0.031,0.257l-0.049,0.516l-0.014,0.225l-0.035,0.257l-0.014,0.129v0.128l-0.032,0.226l-0.018,0.257l-0.032,0.258l-0.018,0.257    l-0.014,0.226v0.031l-0.018,0.226l-0.014,0.257l-0.067,0.74l-0.014,0.128v0.129l-0.018,0.257l-0.014,0.258l-0.018,0.225    l-0.018,0.258l-0.014,0.257l0,0l-0.018,0.257l-0.014,0.258l-0.018,0.256l-0.018,0.227v0.256l-0.014,0.129v0.129l-0.018,0.257    v0.257l-0.014,0.258l-0.018,0.225v0.258h225.773v-0.258l-0.018-0.225v-0.258l-0.018-0.257l-0.014-0.257v-0.129v-0.129    l-0.018-0.256l-0.014-0.227l-0.018-0.256l-0.014-0.258l-0.018-0.257l0,0l-0.018-0.257v-0.258l-0.032-0.225l-0.014-0.258    l-0.018-0.257v-0.129l-0.015-0.128l-0.049-0.74l-0.018-0.257l-0.031-0.226v-0.031l-0.018-0.226l-0.014-0.257l-0.032-0.258    l-0.018-0.257l-0.014-0.226l-0.018-0.128l-0.018-0.129l-0.032-0.257l-0.014-0.225l-0.049-0.516l-0.031-0.257l0,0    C372.255,100.423,360.375,76.826,342.645,59.081z M368.51,181.435c-2.172,0.128-4.053-1.544-4.18-3.697    c-0.111-2.187,1.541-4.051,3.713-4.179c0.063,0,25.027-0.707,48.814-20.993c1.639-1.382,4.131-1.188,5.545,0.45    c1.414,1.64,1.225,4.146-0.432,5.562C396.074,180.662,368.573,181.435,368.51,181.435z M139.635,417.652    c2.474-2.057,5.868-3.342,9.563-3.342c3.681,0,7.071,1.285,9.549,3.342c2.667,2.251,4.324,5.401,4.324,8.906    c0,3.504-1.657,6.653-4.324,8.872c-2.478,2.09-5.868,3.376-9.549,3.376c-3.696,0-7.089-1.286-9.563-3.376    c-2.667-2.219-4.324-5.368-4.324-8.872C135.311,423.021,136.967,419.903,139.635,417.652z M149.198,422.218    c-1.801,0-3.391,0.579-4.5,1.479c-0.916,0.771-1.481,1.8-1.481,2.861c0,1.061,0.565,2.089,1.481,2.828    c1.109,0.933,2.699,1.511,4.5,1.511c1.786,0,3.376-0.578,4.485-1.511c0.916-0.739,1.478-1.768,1.478-2.828    c0-1.094-0.562-2.09-1.46-2.861C152.574,422.797,150.984,422.218,149.198,422.218z M242.667,255.566    c2.478-2.059,5.868-3.344,9.549-3.344s7.071,1.285,9.546,3.344c2.671,2.25,4.341,5.4,4.341,8.904s-1.67,6.654-4.341,8.904    c-2.475,2.059-5.864,3.344-9.546,3.344s-7.072-1.285-9.549-3.344c-2.667-2.25-4.338-5.4-4.338-8.904S240,257.816,242.667,255.566z     M252.216,260.131c-1.786,0-3.394,0.579-4.502,1.511c-0.898,0.739-1.478,1.769-1.478,2.829s0.579,2.09,1.478,2.829    c1.109,0.933,2.716,1.511,4.502,1.511c1.8,0,3.39-0.578,4.499-1.511c0.902-0.739,1.481-1.769,1.481-2.829s-0.579-2.09-1.481-2.829    C255.606,260.71,254.016,260.131,252.216,260.131z M338.258,326.193c2.492-2.089,5.868-3.375,9.564-3.375    c3.681,0,7.071,1.286,9.549,3.375c2.667,2.219,4.324,5.369,4.324,8.873c0,3.537-1.657,6.687-4.324,8.905    c-2.51,2.058-5.885,3.376-9.549,3.376c-3.553,0-6.848-1.223-9.29-3.184l-0.274-0.192c-2.666-2.219-4.323-5.368-4.323-8.905    C333.935,331.563,335.592,328.412,338.258,326.193z M347.822,330.727c-1.801,0-3.391,0.578-4.5,1.512    c-0.92,0.771-1.48,1.768-1.48,2.828c0,1.094,0.561,2.09,1.48,2.861l0.145,0.129c1.091,0.835,2.635,1.382,4.355,1.382    c1.782,0,3.375-0.578,4.484-1.511c0.916-0.771,1.478-1.768,1.478-2.861c0-1.061-0.562-2.058-1.478-2.828    C351.197,331.305,349.604,330.727,347.822,330.727z M261.425,324.232c0-2.186,1.769-3.953,3.938-3.953    c2.187,0,3.955,1.768,3.955,3.953v135.18c0,2.187-1.769,3.955-3.955,3.955c-2.169,0-3.938-1.769-3.938-3.955V324.232z     M233.7,338.604c0-2.188,1.765-3.955,3.952-3.955s3.955,1.768,3.955,3.955v77.347c0,2.186-1.769,3.953-3.955,3.953    s-3.952-1.768-3.952-3.953V338.604z M205.971,280.77c0-2.186,1.783-3.953,3.955-3.953c2.187,0,3.952,1.768,3.952,3.953v93.936    c0,2.186-1.765,3.953-3.952,3.953c-2.172,0-3.955-1.768-3.955-3.953V280.77z M241.606,313.335c0,2.187-1.769,3.954-3.955,3.954    s-3.952-1.768-3.952-3.954v-16.106c0-2.186,1.765-3.953,3.952-3.953s3.955,1.768,3.955,3.953V313.335z M269.335,482.077    c0,2.153-1.786,3.922-3.955,3.922c-2.187,0-3.955-1.769-3.955-3.922v-8.069c0-2.186,1.769-3.955,3.955-3.955    c2.169,0,3.955,1.77,3.955,3.955V482.077z M297.046,443.532c0,2.187-1.769,3.954-3.955,3.954c-2.169,0-3.938-1.768-3.938-3.954    v-16.106c0-2.186,1.769-3.954,3.938-3.954c2.187,0,3.955,1.769,3.955,3.954V443.532z M213.878,458.674    c0,2.186-1.765,3.953-3.952,3.953c-2.172,0-3.955-1.768-3.955-3.953V415.95c0-2.154,1.783-3.955,3.955-3.955    c2.187,0,3.952,1.801,3.952,3.955V458.674z M154.424,227.147c-0.067,0.192-0.162,0.354-0.26,0.547l-98.21,170.093    c-1.078,1.863-3.488,2.539-5.366,1.445c-1.881-1.092-2.523-3.504-1.449-5.367l97.81-169.418    c-3.695-1.383-7.282-2.861-10.704-4.404c-5.773-2.572-11.139-5.305-16.06-8.197l-0.274-0.193    c-4.98-2.957-9.497-6.075-13.483-9.291c-3.825-3.086-7.202-6.364-10.062-9.708c-0.162-0.192-0.341-0.417-0.548-0.578    c-5.689-6.88-9.163-14.146-10.062-21.7l0.481,0.611l0.498,0.546l0.13,0.193l0.386,0.386l0.045,0.064l0.467,0.514l0.547,0.579    l0.516,0.547l0.032,0.032l0.288,0.289l0.274,0.257c7.058,6.976,17.07,13.374,29.479,18.968l0.706,0.321l0.305,0.128l1.014,0.45    l0.13,0.032l0.916,0.386l0.544,0.258l0.499,0.192l0.982,0.418l0.063,0.031l1.06,0.419l0.386,0.161l0.691,0.289l0.835,0.321    l0.242,0.097l1.091,0.418l0.21,0.096l0.902,0.322l2.232,0.835h0.018c2.99,1.093,6.107,2.154,9.308,3.183    c12.648,3.986,26.872,7.361,42.289,10.029l0.144,0.033l3.569,0.579l0.449,0.063c4.067,0.644,8.198,1.254,12.41,1.801l0.512,0.064    l1.593,0.225l0.369,0.032l3.875,0.482h0.063l1.979,0.225h0.112l2.151,0.226l1.72,0.193l0.435,0.031l1.576,0.16l0.611,0.065    l2.186,0.192l1.253,0.129l0.934,0.063l2.218,0.193l0.93,0.097l1.288,0.096l2.232,0.161l0.611,0.032l1.625,0.129l0.449,0.031    l1.8,0.129h0.273l1.976,0.129h0.116l2.088,0.129h0.063l2.042,0.096l0.225,0.032l1.895,0.065l0.386,0.031l1.72,0.064l0.579,0.031    l1.562,0.065l0.737,0.032l1.383,0.032l0.933,0.031l1.222,0.032l1.091,0.033l1.046,0.031l1.284,0.032l0.871,0.032l1.463,0.032    h0.706l1.639,0.032h0.516l1.832,0.033h0.354h1.993h0.175h2.187h2.187h0.176h2.011h0.352l1.817-0.033h0.53l1.639-0.032h0.691    l1.464-0.032l0.866-0.032l1.288-0.032l1.042-0.031l1.109-0.033l1.207-0.032l0.934-0.031l1.383-0.032l0.755-0.032l1.54-0.065    l0.579-0.031l1.72-0.064l0.404-0.031l1.881-0.065l0.225-0.032l2.042-0.096h0.063l2.105-0.129h0.095l1.979-0.129h0.288l1.801-0.129    l0.449-0.031l1.624-0.129l0.611-0.032l2.218-0.161l1.284-0.096l0.934-0.097l2.218-0.193l0.935-0.063l1.252-0.129l2.188-0.192    l0.61-0.065l1.575-0.16l0.432-0.031l1.737-0.193l2.155-0.226h0.112l1.976-0.225h0.049l3.889-0.482l0.354-0.032l1.594-0.225    l0.53-0.064c4.193-0.547,8.342-1.125,12.392-1.801l0.449-0.063l3.569-0.579l0.161-0.033c15.413-2.668,29.624-6.043,42.272-10.029    c3.2-1.028,6.316-2.09,9.307-3.183h0.018l2.232-0.835l0.901-0.322l0.207-0.096l1.095-0.418l0.239-0.097l0.839-0.321l0.691-0.289    l0.383-0.161l1.063-0.419l0.063-0.031l0.997-0.418l0.48-0.192l0.565-0.258l0.898-0.386l0.13-0.032l1.01-0.45l0.306-0.128    l0.709-0.321c12.409-5.594,22.422-11.992,29.479-18.968l0.274-0.257l0.287-0.289l0.032-0.032l0.516-0.547l0.548-0.579l0.463-0.514    l0.066-0.064l0.369-0.386l0.144-0.193l0.484-0.546l0.498-0.611c-2.284,19.128-21.155,36.584-50.505,49.668    c-6.798,3.055-14.144,5.819-21.974,8.358l95.525,165.464c1.078,1.863,0.436,4.275-1.445,5.367    c-1.882,1.094-4.293,0.418-5.37-1.445l-96.44-167.039c-27.873,7.973-61.111,12.635-96.828,12.635    C221.996,243.383,184.447,237.307,154.424,227.147z M289.153,280.77c0-2.186,1.769-3.953,3.938-3.953    c2.187,0,3.955,1.768,3.955,3.953V415.95c0,2.186-1.769,3.953-3.955,3.953c-2.169,0-3.938-1.768-3.938-3.953V280.77z     M378.684,104.635c1.205,4.049,2.188,8.164,2.955,12.376l0.05,0.192l0.031,0.225l0.081,0.419l0.049,0.321l0.049,0.322l0.063,0.32    l0.161,0.965l0.05,0.322l0.192,1.285l0.046,0.322l0.05,0.32l0.08,0.675l0.049,0.322l0.127,0.964l0.031,0.321l0.049,0.322    l0.032,0.321l0.031,0.129l0.018,0.225l0.032,0.322l0.031,0.32l0.035,0.322l0.031,0.321l0.014,0.032l0.018,0.321l0.032,0.321    l0.031,0.322l0.032,0.32l0.035,0.226v0.128l0.031,0.322l0.031,0.321l0.014,0.321l0.035,0.322v0.127l0.032,0.227l0.014,0.32    l0.018,0.322l0.032,0.321l0.018,0.354l0,0l0.031,0.321l0.014,0.322l0.018,0.354l0.018,0.32l0.014,0.227v0.096l0.018,0.354    l0.015,0.321l0.018,0.322l0.014,0.354v0.097l0.018,0.225v0.322l0.018,0.354l0.015,0.32v0.321v0.032v0.321l0.018,0.322v0.354    l0.014,0.321v0.225v0.098v0.354v0.32v0.354v0.322v0.097c0,2.186-1.766,3.954-3.938,3.954H145.871    c-2.187,0-3.955-1.769-3.955-3.954v-0.097v-0.225v-0.354v-0.321v-0.354v-0.322l0,0l0.018-0.354v-0.32l0.017-0.322v-0.354v-0.193    l0.014-0.128v-0.354l0.018-0.321l0.014-0.354v-0.321l0.018-0.096v-0.225l0.018-0.354l0.014-0.322l0.017-0.321l0.014-0.322v-0.031    l0.018-0.322l0.014-0.354l0.035-0.321l0.014-0.322l0.017-0.191v-0.129l0.032-0.354l0.014-0.321l0.035-0.354l0.014-0.322v-0.032    l0.031-0.289l0.018-0.322l0.032-0.354l0.032-0.32l0.017-0.258l0.014-0.063l0.018-0.354l0.049-0.321l0.031-0.321l0.032-0.322    v-0.128l0.032-0.226l0.032-0.32l0.035-0.322l0.032-0.321l0.207-1.64l0.018-0.225l0.014-0.097l0.049-0.321l0.049-0.354l0.032-0.321    l0.144-0.964l0.049-0.321l0.049-0.322l0.031-0.289l0.018-0.064l0.046-0.32l0.049-0.322l0.063-0.321l0.098-0.644l0.063-0.32    l0.049-0.322l0.063-0.321l0.032-0.226l0.081-0.418l0.032-0.192l0.035-0.225l0.045-0.193l0.193-1.061l0.049-0.192l0.049-0.227    l0.032-0.192l0.049-0.225l0.032-0.161v-0.032l0.095-0.417l0.049-0.227l0.049-0.191l0.032-0.226l0.049-0.192l0.126-0.645    l0.049-0.191l0.049-0.226l0.049-0.192l0.095-0.386v-0.032l0.049-0.193l0.045-0.225l0.049-0.193l0.049-0.225l0.049-0.193    l0.046-0.192l0.116-0.419l0.045-0.225l0.049-0.192l0.049-0.192l0.063-0.225l0.049-0.193l0.049-0.193v-0.033l0.112-0.385    l0.045-0.225l0.049-0.193l0.063-0.193l0.049-0.225l0.063-0.193l0,0l0.049-0.225l0.049-0.192l0.063-0.193l0.049-0.226l0.063-0.191    l0.067-0.193l0.045-0.193v-0.032l0.067-0.192l0.063-0.193l0.049-0.192l0.063-0.226l0.049-0.193l0.063-0.191    c-18.404,5.529-33.562,12.344-44.283,20.027c-10.915,7.812-17.07,16.428-17.07,25.268c0,12.119,11.283,21.764,20.446,27.646    l0.337,0.225l0.611,0.387l0.386,0.257l0.579,0.321l0.449,0.289l0.516,0.322l0.53,0.321l0.481,0.257l0.597,0.354l0.417,0.226    l0.674,0.386l0.372,0.192l0.737,0.418l0.305,0.161l0.821,0.45l0.256,0.128l0.884,0.45l0.211,0.129l0.961,0.481l0.147,0.065    l1.042,0.515l0.081,0.031l1.141,0.578l0,0l1.158,0.547l0.063,0.033l1.256,0.578l1.06,0.482l0.207,0.064l1.014,0.449l0.273,0.129    l0.948,0.418l0.354,0.16l1.333,0.547l0.821,0.354l0.513,0.193l1.365,0.547l0.709,0.289l0.674,0.258l0.646,0.256l0.754,0.289    l0.562,0.193l0.853,0.322l0.498,0.193l0.93,0.32l0.435,0.16l1.028,0.387l0.337,0.096l1.19,0.418l0.21,0.097l1.333,0.45    l0.063,0.032l1.432,0.45l0.063,0.031l2.829,0.9l1.495,0.482l0.467,0.161l1.028,0.29l0.611,0.192l0.916,0.257l0.74,0.225    l0.79,0.226l0.867,0.257l0.691,0.193l0.997,0.289l0.562,0.161l1.141,0.288l0.435,0.129l1.59,0.418l1.415,0.387l0.193,0.032    l1.562,0.417h0.063l1.621,0.418h0.081c2.716,0.676,5.468,1.318,8.296,1.93l0.754,0.16l0.948,0.225l0.916,0.162l0.803,0.191    l1.737,0.354l1.204,0.226l0.547,0.128l1.351,0.258l0.4,0.064l1.513,0.289l0.274,0.064l1.653,0.289l0.13,0.032l0.337,0.065    l3.039,0.514l0.225,0.064h0.162l1.656,0.289l0.306,0.064l1.509,0.225l0.484,0.098l1.365,0.191l0.625,0.097l1.225,0.192l1.863,0.29    l0.93,0.129l0.951,0.128l1.077,0.16l0.804,0.13l1.235,0.16l0.66,0.097l1.396,0.193l0.499,0.031l1.576,0.226l0.34,0.032    l1.734,0.192l0.193,0.032l1.899,0.226h0.031l1.944,0.225l0.13,0.032l1.832,0.193l0.273,0.031l1.685,0.16l0.436,0.033l1.544,0.16    l0.593,0.064l1.383,0.129l0.772,0.064l1.221,0.129l0.934,0.063l1.06,0.097l1.091,0.097l0.916,0.063l1.271,0.098l0.758,0.063    l1.429,0.097l0.596,0.064l1.59,0.097l0.436,0.032l1.783,0.096l0.256,0.033l1.948,0.127h0.112l2.057,0.098l0.063,0.031l1.993,0.098    h0.242l1.832,0.096l0.4,0.031l1.688,0.065h0.565l1.526,0.063l0.737,0.033l1.351,0.064l0.916,0.032l1.189,0.031l1.078,0.032h1.028    l1.271,0.031l0.853,0.033l1.428,0.032h0.691l1.607,0.032h0.53l1.769,0.032h0.354h1.962h0.193h2.137h2.155h0.176h1.962h0.354    l1.783-0.032h0.513l1.625-0.032h0.674l1.449-0.032l0.85-0.033l1.256-0.031h1.028l1.077-0.032l1.204-0.031l0.902-0.032l1.365-0.064    l0.74-0.033l1.509-0.063h0.579l1.671-0.065l0.403-0.031l1.85-0.096h0.225l1.993-0.098l0.063-0.031l2.057-0.098h0.112l1.944-0.127    l0.273-0.033l1.769-0.096l0.436-0.032l1.607-0.097l0.579-0.064l1.445-0.097l0.755-0.063l1.253-0.098l0.916-0.063l1.095-0.097    l1.06-0.097l0.934-0.063l1.236-0.129l0.758-0.064l1.383-0.129l0.61-0.064l1.526-0.16l0.432-0.033l1.688-0.16l0.274-0.031    l1.849-0.193l0.112-0.032l1.944-0.225h0.032l1.898-0.226l0.193-0.032l1.732-0.192l0.338-0.032l1.575-0.226l0.499-0.031l1.4-0.193    l0.659-0.097l1.235-0.16l0.804-0.13l1.095-0.16l0.93-0.128l0.934-0.129l1.864-0.29l1.239-0.192l0.609-0.097l1.383-0.191    l0.467-0.098l1.51-0.225l0.322-0.064l1.64-0.289h0.175l0.211-0.064l3.053-0.514l0.338-0.065l0.111-0.032l1.675-0.289l0.256-0.064    l1.509-0.289l0.404-0.064l1.352-0.258l0.543-0.128l1.207-0.226l1.738-0.354l0.817-0.191l0.901-0.162l0.948-0.225l0.772-0.16    c2.811-0.611,5.576-1.254,8.275-1.93h0.08l1.625-0.418h0.063l1.559-0.417l0.193-0.032l1.414-0.387l1.594-0.418l0.436-0.129    l1.14-0.288l0.562-0.161l0.997-0.289l0.691-0.193l0.866-0.257l0.79-0.226l0.737-0.225l0.916-0.257l0.61-0.192l1.032-0.29    l0.463-0.161l1.495-0.482l2.829-0.9l0.066-0.031l1.428-0.45l0.066-0.032l1.348-0.45l0.193-0.097l1.189-0.418l0.341-0.096    l1.042-0.387l0.418-0.16l0.934-0.32l0.498-0.193l0.854-0.322l0.561-0.193l0.773-0.289l0.624-0.256l0.677-0.258l0.706-0.289    l1.368-0.547l0.513-0.193l0.821-0.354l1.334-0.547l0.354-0.16l0.947-0.418l0.288-0.129l0.996-0.449l0.211-0.064l1.06-0.482    l0.13-0.064l1.123-0.514l0.066-0.033l1.155-0.547l0,0l1.144-0.578l0.081-0.031l1.042-0.515l0.145-0.065l0.982-0.481l0.193-0.129    l0.884-0.45l0.257-0.128l0.82-0.45l0.32-0.161l0.74-0.418l0.354-0.192l0.674-0.386l0.417-0.226l0.611-0.354l0.467-0.257    l0.529-0.321l0.517-0.322l0.463-0.289l0.565-0.321l0.386-0.257l0.61-0.387l0.337-0.225c10.272-6.59,17.039-13.855,19.464-21.506    l0.112-0.29c0.579-1.929,0.87-3.89,0.87-5.851c0-8.84-6.142-17.456-17.07-25.268C412.246,116.979,397.102,110.164,378.684,104.635    z" style="fill-rule:evenodd;clip-rule:evenodd;"/></g></g><g id="Layer_1"/></svg>